<?xml version="1.0" encoding="UTF-8"?>
<svg id="Layer_1" data-name="Layer 1" xmlns="http://www.w3.org/2000/svg" viewBox="0 0 500 500">
  <defs>
    <style>
      .cls-1 {
        fill: #37bff0;
      }

      .cls-1, .cls-2 {
        stroke-width: 0px;
      }

      .cls-2 {
        fill: #376eb5;
      }
    </style>
  </defs>
  <g>
    <path class="cls-2" d="M152.22,205.46c-20.28-4.86-40.55-9.74-60.85-14.51-1.07-.25-2.51.06-3.5.6-11.21,6.19-22.36,12.48-33.52,18.75-7.32,4.1-14.64,8.21-21.96,12.31,0,.18.01.35.02.53,1.53.39,3.05.85,4.61,1.13.63.11,1.08.32,1.4.66l2.47,17.77c-1.55.63-2.54,2.25-2.3,3.99s1.62,3.02,3.28,3.21c-.25,5.07-.57,10.14-.89,15.21-.26,4.09-.26,4.12,3.82,3.51,6.07-.9,5.96.12,3.75-6.16-1.49-4.24-3.01-8.48-4.51-12.72l-.03-.22c1.39-.7,2.26-2.23,2.03-3.87s-1.47-2.87-3.01-3.17l-2.4-17.31c5.16,1.21,10.14,2.39,15.29,3.6-.03-.8.06-1.32-.08-1.75-.84-2.46.29-3.48,2.5-4.49,21.97-10.1,44.88-13.47,68.81-9.91,4.26.63,4.26.61,5.28,4.82.03.13.14.24.39.63,6.98-3.91,13.96-7.84,21.4-12.01-1.06-.32-1.51-.49-1.97-.6Z"/>
    <path class="cls-1" d="M84.32,270.57c-.75-5.38-1.52-10.76-2.23-16.14-.5-3.79,1.77-6.76,5.36-6.97.96-.06,2.01.17,2.91.54,10.11,4.06,20.19,8.16,30.28,12.27,4.59,1.87,5.39,7.28,1.5,10.33-8.57,6.72-17.16,13.42-25.77,20.08-4.09,3.17-9.05,1.14-9.8-3.97-.79-5.37-1.5-10.76-2.25-16.14h0Z"/>
    <path class="cls-2" d="M59.66,238.33c.31,2.22.62,4.43.93,6.69,6.79-11.95,18.86-20.73,33.49-22.76,14.64-2.03,28.65,3.14,38.44,12.79-.84-6.18-1.7-12.37-2.62-18.54-.09-.59-1.09-1.39-1.77-1.5-23.89-3.87-46.81-.7-68.78,9.46-1.19.55-1.49,1.2-1.3,2.42.59,3.8,1.08,7.62,1.61,11.43Z"/>
    <path class="cls-2" d="M106.09,308.75c-22.7,3.15-43.73-12.75-46.88-35.45-3.15-22.7,12.75-43.73,35.45-46.88,22.7-3.15,43.73,12.75,46.88,35.45,3.15,22.7-12.75,43.73-35.45,46.88ZM95.76,234.32c-18.34,2.55-31.19,19.54-28.64,37.87,2.55,18.34,19.54,31.19,37.87,28.64,18.34-2.55,31.19-19.54,28.64-37.87-2.55-18.34-19.54-31.19-37.87-28.64Z"/>
  </g>
  <g>
    <path class="cls-1" d="M159.1,289.13c-.85-1.07,4.05-12.69,4.9-12.26,1.71.85,8.32,5.65,15.14,5.65,4.26,0,6.4-1.49,6.4-3.84s-1.71-3.63-8.63-4.9c-11.94-2.03-17.48-7.04-17.48-15.99,0-11.41,7.78-18.02,20.9-18.02,9.81,0,18.44,3.31,19.83,4.69.96.96-3.94,12.15-4.69,12.26-.53,0-7.36-4.16-13.54-4.16-4.16,0-5.97,2.03-5.97,4.16,0,2.35,1.81,3.41,8,4.26,12.69,1.81,18.34,6.18,18.34,16.1,0,9.38-6.4,17.91-21.32,17.91-10.66,0-20.36-4.26-21.85-5.86Z"/>
    <path class="cls-1" d="M257.17,268.03c0,13.75-9.91,26.12-26.97,26.44-15.14,0-27.08-10.45-27.08-27.82,0-13.33,10.23-26.44,26.86-26.44,15.14,0,27.19,10.23,27.19,27.83ZM230.84,256.41c-7.57-.21-11.3,4.58-11.3,11.51,0,7.46,4.8,11.51,9.81,11.62,7.46.21,11.41-4.26,11.41-11.73,0-8.53-4.9-11.19-9.91-11.41Z"/>
    <path class="cls-1" d="M278.07,240.84c-.11,2.24-.21,5.76-.32,6.4,2.35-3.52,7.57-7.46,16.2-7.46,11.62,0,18.87,9.28,18.87,23.03,0,7.14-.43,25.16-.85,30.38-.11,1.07-16.1.85-16.42.64-.43-.21.11-25.37.11-29.21,0-5.76-2.56-9.81-8.1-9.81-5.86,0-9.38,4.58-9.38,8.74,0,3.62-.11,29.21-.43,29.64s-15.88.21-16.2-.43c-.21-.43-.64-28.25-.32-50.85.96-1.39,15.88-2.03,16.84-1.07Z"/>
    <path class="cls-2" d="M333.71,213.02c.64.43-.64,45.41-.64,45.41,0,0,21.11-19.83,22.17-19.83.96,0,12.37,6.72,12.47,8.21.11,1.49-16.31,15.67-16.31,15.67,0,0,18.34,27.08,18.12,27.93-.21.75-12.47,5.97-16.1,5.44-.85-.11-14.29-24.52-15.14-24.41-.85.11-4.48,3.73-4.48,3.73l.53,18.98s-15.46.11-16.2-.53c-.85-.64-2.67-78.89-1.28-80.28,1.39-1.28,16.1-.75,16.84-.32Z"/>
    <path class="cls-2" d="M420.06,268.03c0,13.75-9.91,26.12-26.97,26.44-15.14,0-27.08-10.45-27.08-27.82,0-13.33,10.23-26.44,26.87-26.44,15.14,0,27.19,10.23,27.19,27.83ZM393.73,256.41c-7.57-.21-11.3,4.58-11.3,11.51,0,7.46,4.8,11.51,9.81,11.62,7.46.21,11.41-4.26,11.41-11.73,0-8.53-4.9-11.19-9.92-11.41Z"/>
    <path class="cls-1" d="M455.32,278.59c-1.69.6-3.56,1.05-5.41,1.05-2,0-4.49-.35-6.65-1.58l-5.35,14.63c3.25,1.2,7.02,1.88,11.37,1.88,4.02,0,7.84-.93,11.01-2.41l-4.96-13.57Z"/>
    <path class="cls-2" d="M467.5,245.75c-.32-1.07-7.25-5.65-18.55-5.65-17.27,0-27.61,13.22-27.61,26.65,0,9.78,4.21,20.06,14.23,24.93l5.7-15.17c-1.8-1.81-3.08-4.6-3.08-8.9,0-8.21,4.69-12.47,12.26-12.47,6.18,0,11.73,4.8,12.47,4.69,1.92-.64,4.9-12.79,4.58-14.07Z"/>
    <path class="cls-2" d="M461.21,275.81c-.57.28-1.9,1.07-3.62,1.86l4.98,13.26c2.21-1.37,3.97-3.01,5.04-4.77-1.38-2.98-5.33-10.66-6.4-10.34Z"/>
  </g>
</svg>